# Blender v2.90.1 OBJ File: ''
# www.blender.org
mtllib flube.mtl
o Cube.001
v -1.000000 1.000000 -1.000000
v 1.000000 1.000000 1.000000
v 1.000000 1.000000 -1.000000
v -1.000000 -1.000000 1.000000
v 1.000000 -1.000000 1.000000
v -1.000000 1.000000 1.000000
v -1.000000 -1.000000 -1.000000
v 1.000000 -1.000000 -1.000000
v -1.000000 -0.002468 -1.414211
v 1.000000 1.414211 -0.002468
v 1.000000 -0.002468 -1.414211
v -1.000000 0.002468 1.414211
v 1.000000 0.002468 1.414211
v -1.000000 1.414211 -0.002468
v -1.000000 -1.414211 0.002468
v 1.000000 -1.414211 0.002468
v -1.402435 -0.182144 -1.000000
v -0.182144 1.402435 1.000000
v -0.182144 1.402435 -1.000000
v 0.182144 -1.402435 1.000000
v 1.402435 0.182144 1.000000
v -1.402435 -0.182144 1.000000
v 0.182144 -1.402435 -1.000000
v 1.402435 0.182144 -1.000000
vt 0.875000 0.500000
vt 0.625000 0.750000
vt 0.625000 0.500000
vt 0.375000 1.000000
vt 0.375000 0.750000
vt 0.625000 0.000000
vt 0.375000 0.250000
vt 0.375000 0.000000
vt 0.375000 0.500000
vt 0.125000 0.750000
vt 0.125000 0.500000
vt 0.625000 0.250000
vt 0.875000 0.750000
vt 0.625000 1.000000
vt 0.875000 0.500000
vt 0.625000 0.750000
vt 0.625000 0.500000
vt 0.375000 1.000000
vt 0.375000 0.750000
vt 0.625000 0.000000
vt 0.375000 0.250000
vt 0.375000 0.000000
vt 0.375000 0.500000
vt 0.125000 0.750000
vt 0.125000 0.500000
vt 0.625000 0.250000
vt 0.875000 0.750000
vt 0.625000 1.000000
vt 0.875000 0.500000
vt 0.625000 0.750000
vt 0.625000 0.500000
vt 0.375000 1.000000
vt 0.375000 0.750000
vt 0.625000 0.000000
vt 0.375000 0.250000
vt 0.375000 0.000000
vt 0.375000 0.500000
vt 0.125000 0.750000
vt 0.125000 0.500000
vt 0.625000 0.250000
vt 0.875000 0.750000
vt 0.625000 1.000000
vn 0.0000 1.0000 0.0000
vn 0.0000 -0.0000 1.0000
vn -1.0000 -0.0000 0.0000
vn 0.0000 -1.0000 -0.0000
vn 1.0000 -0.0000 0.0000
vn 0.0000 0.0000 -1.0000
vn 0.0000 0.7059 -0.7083
vn 0.0000 0.7083 0.7059
vn 0.0000 -0.7059 0.7083
vn 0.0000 -0.7083 -0.7059
vn -0.7923 0.6101 0.0000
vn -0.6101 -0.7923 -0.0000
vn 0.7923 -0.6101 -0.0000
vn 0.6101 0.7923 0.0000
usemtl Material.001
s 1
f 1/1/1 2/2/1 3/3/1
f 2/2/2 4/4/2 5/5/2
f 6/6/3 7/7/3 4/8/3
f 8/9/4 4/10/4 7/11/4
f 3/3/5 5/5/5 8/9/5
f 1/12/6 8/9/6 7/7/6
f 1/1/1 6/13/1 2/2/1
f 2/2/2 6/14/2 4/4/2
f 6/6/3 1/12/3 7/7/3
f 8/9/4 5/5/4 4/10/4
f 3/3/5 2/2/5 5/5/5
f 1/12/6 3/3/6 8/9/6
usemtl Material.002
f 9/15/7 10/16/7 11/17/7
f 10/16/8 12/18/8 13/19/8
f 14/20/3 15/21/3 12/22/3
f 16/23/9 12/24/9 15/25/9
f 11/17/5 13/19/5 16/23/5
f 9/26/10 16/23/10 15/21/10
f 9/15/7 14/27/7 10/16/7
f 10/16/8 14/28/8 12/18/8
f 14/20/3 9/26/3 15/21/3
f 16/23/9 13/19/9 12/24/9
f 11/17/5 10/16/5 13/19/5
f 9/26/10 11/17/10 16/23/10
usemtl Material.003
f 17/29/11 18/30/11 19/31/11
f 18/30/2 20/32/2 21/33/2
f 22/34/12 23/35/12 20/36/12
f 24/37/13 20/38/13 23/39/13
f 19/31/14 21/33/14 24/37/14
f 17/40/6 24/37/6 23/35/6
f 17/29/11 22/41/11 18/30/11
f 18/30/2 22/42/2 20/32/2
f 22/34/12 17/40/12 23/35/12
f 24/37/13 21/33/13 20/38/13
f 19/31/14 18/30/14 21/33/14
f 17/40/6 19/31/6 24/37/6
